<svg enable-background="new 0 0 1000 1000" viewBox="0 0 1000 1000" xmlns="http://www.w3.org/2000/svg"><g fill="#1c362d"><path d="m95.57 576.39c5.06 0 8.84.98 11.35 2.93s3.77 5.11 3.77 9.49c0 5.63-2.63 9.25-7.89 10.84l7.63 10.79c.34.44.42.87.23 1.27s-.55.61-1.09.61h-5.9c-.88 0-1.58-.39-2.09-1.17l-7.02-10.28h-3.87v9.97c0 .98-.49 1.48-1.48 1.48h-5.7c-.98 0-1.48-.49-1.48-1.48v-32.98c0-.98.49-1.48 1.48-1.48h12.06zm-.16 17.45c2.34 0 4.01-.4 5.01-1.2s1.5-2.08 1.5-3.84c0-1.87-.49-3.17-1.48-3.92-.98-.75-2.65-1.12-4.99-1.12h-4.78v10.08z"/><path d="m134.85 597.56v7.43h13.64c1.02 0 1.53.49 1.53 1.48v4.33c0 1.02-.51 1.53-1.53 1.53h-20.76c-.98 0-1.48-.49-1.48-1.48v-32.98c0-.98.49-1.48 1.48-1.48h20.56c.98 0 1.48.49 1.48 1.48v4.38c0 1.02-.49 1.53-1.48 1.53h-13.43v6.77h12.72c.95 0 1.42.49 1.42 1.48v4.07c0 .98-.48 1.48-1.42 1.48h-12.73z"/><path d="m188.95 607.02c.48-.17.83.02 1.07.56l.97 2.19c.03.37-.19.68-.66.92-2.31 1.42-5.33 2.14-9.06 2.14-5.12 0-9.08-1.59-11.88-4.76s-4.2-7.71-4.2-13.61 1.38-10.45 4.15-13.64c2.76-3.19 6.66-4.78 11.68-4.78 3.66 0 6.65.68 8.96 2.04.54.27.75.59.61.97l-.87 2.14c-.2.58-.58.73-1.12.46-2.04-1.05-4.36-1.58-6.97-1.58-3.94 0-6.91 1.22-8.93 3.66s-3.03 6.02-3.03 10.74c0 9.57 4.07 14.35 12.21 14.35 2.54-.02 4.9-.61 7.07-1.8z"/><path d="m221.72 611.45c0 .58-.29.87-.86.87h-2.7c-.54 0-.81-.29-.81-.87v-12.26l-12.42-21.63c-.14-.2-.16-.42-.08-.64s.3-.33.64-.33h2.95c.48 0 .85.25 1.12.76l7.12 12.67 2.8 5.34 2.9-5.34 7.12-12.67c.24-.51.61-.76 1.12-.76h2.95c.34 0 .55.11.64.33s.06.43-.08.64l-12.42 21.63v12.26z"/><path d="m270.67 607.02c.48-.17.83.02 1.07.56l.97 2.19c.03.37-.19.68-.66.92-2.31 1.42-5.33 2.14-9.06 2.14-5.12 0-9.08-1.59-11.88-4.76s-4.2-7.71-4.2-13.61 1.38-10.45 4.15-13.64c2.76-3.19 6.66-4.78 11.68-4.78 3.66 0 6.65.68 8.96 2.04.54.27.75.59.61.97l-.87 2.14c-.2.58-.58.73-1.12.46-2.04-1.05-4.36-1.58-6.97-1.58-3.94 0-6.91 1.22-8.93 3.66s-3.03 6.02-3.03 10.74c0 9.57 4.07 14.35 12.21 14.35 2.55-.02 4.9-.61 7.07-1.8z"/><path d="m293.88 608.24h15.42c.58 0 .86.25.86.76v2.44c0 .58-.29.87-.86.87h-18.93c-.58 0-.87-.29-.87-.87v-34.04c0-.54.29-.81.87-.81h2.65c.58 0 .86.27.86.81z"/><path d="m331.39 595.98v12.31h15.83c.58 0 .87.27.87.81v2.29c0 .61-.29.92-.87.92h-19.29c-.58 0-.87-.29-.87-.87v-34.04c0-.54.27-.81.81-.81h19.18c.58 0 .87.27.87.81v2.34c0 .58-.29.87-.87.87h-15.67v11.5h15.11c.54 0 .81.29.81.86v2.14c0 .58-.27.87-.81.87z"/><path d="m364.26 607.63c0-.54.27-.81.81-.81h3.26c.54 0 .81.27.81.81v3.87c0 .54-.25.81-.76.81h-3.36c-.51 0-.76-.27-.76-.81z"/><path d="m424.97 576.39c5.06 0 8.84.98 11.35 2.93s3.77 5.11 3.77 9.49c0 5.63-2.63 9.25-7.89 10.84l7.63 10.79c.34.44.42.87.23 1.27s-.55.61-1.09.61h-5.9c-.88 0-1.58-.39-2.09-1.17l-7.02-10.28h-3.87v9.97c0 .98-.49 1.48-1.48 1.48h-5.7c-.98 0-1.48-.49-1.48-1.48v-32.98c0-.98.49-1.48 1.48-1.48h12.06zm-.15 17.45c2.34 0 4.01-.4 5.01-1.2s1.5-2.08 1.5-3.84c0-1.87-.49-3.17-1.48-3.92s-2.65-1.12-4.99-1.12h-4.78v10.08z"/><path d="m464.26 597.56v7.43h13.64c1.02 0 1.53.49 1.53 1.48v4.33c0 1.02-.51 1.53-1.53 1.53h-20.76c-.98 0-1.48-.49-1.48-1.48v-32.98c0-.98.49-1.48 1.48-1.48h20.56c.98 0 1.48.49 1.48 1.48v4.38c0 1.02-.49 1.53-1.48 1.53h-13.43v6.77h12.72c.95 0 1.42.49 1.42 1.48v4.07c0 .98-.48 1.48-1.42 1.48h-12.73z"/><path d="m497.03 612.32c-.58 0-.87-.29-.87-.87v-34.04c0-.54.27-.81.81-.81h8.75c5.9 0 10.36 1.32 13.36 3.97s4.5 7.07 4.5 13.28c0 6.75-1.48 11.52-4.45 14.3s-7.4 4.17-13.31 4.17zm3.51-31.66v27.58h5.24c2.21 0 4.09-.21 5.65-.64s2.94-1.16 4.15-2.21 2.09-2.53 2.67-4.43.87-4.28.87-7.12c0-4.92-1.11-8.35-3.33-10.28s-5.59-2.9-10.1-2.9z"/><path d="m544.18 609.47c-2.26-2.31-3.38-5.56-3.38-9.77v-22.29c0-.54.29-.81.87-.81h2.65c.58 0 .86.27.86.81v21.98c0 6.34 3.04 9.52 9.11 9.52s9.11-3.17 9.11-9.52v-21.98c0-.54.27-.81.81-.81h2.7c.54 0 .81.27.81.81v22.29c0 4.21-1.12 7.46-3.36 9.77s-5.6 3.46-10.08 3.46-7.85-1.16-10.1-3.46z"/><path d="m608.88 607.02c.48-.17.83.02 1.07.56l.97 2.19c.03.37-.19.68-.66.92-2.31 1.42-5.33 2.14-9.06 2.14-5.12 0-9.08-1.59-11.88-4.76s-4.2-7.71-4.2-13.61 1.38-10.45 4.15-13.64 6.66-4.78 11.68-4.78c3.66 0 6.65.68 8.96 2.04.54.27.75.59.61.97l-.87 2.14c-.2.58-.58.73-1.12.46-2.04-1.05-4.36-1.58-6.97-1.58-3.94 0-6.91 1.22-8.93 3.66s-3.03 6.02-3.03 10.74c0 9.57 4.07 14.35 12.21 14.35 2.54-.02 4.9-.61 7.07-1.8z"/><path d="m632.04 595.98v12.31h15.83c.58 0 .87.27.87.81v2.29c0 .61-.29.92-.87.92h-19.29c-.58 0-.87-.29-.87-.87v-34.04c0-.54.27-.81.81-.81h19.19c.58 0 .87.27.87.81v2.34c0 .58-.29.87-.87.87h-15.67v11.5h15.11c.54 0 .81.29.81.86v2.14c0 .58-.27.87-.81.87z"/><path d="m664.91 607.63c0-.54.27-.81.81-.81h3.26c.54 0 .81.27.81.81v3.87c0 .54-.25.81-.76.81h-3.36c-.51 0-.76-.27-.76-.81z"/><path d="m725.62 576.39c5.05 0 8.84.98 11.35 2.93s3.77 5.11 3.77 9.49c0 5.63-2.63 9.25-7.89 10.84l7.63 10.79c.34.44.42.87.23 1.27s-.55.61-1.09.61h-5.9c-.88 0-1.58-.39-2.09-1.17l-7.02-10.28h-3.87v9.97c0 .98-.49 1.48-1.48 1.48h-5.7c-.98 0-1.48-.49-1.48-1.48v-32.98c0-.98.49-1.48 1.48-1.48h12.06zm-.15 17.45c2.34 0 4.01-.4 5.01-1.2s1.5-2.08 1.5-3.84c0-1.87-.49-3.17-1.48-3.92-.98-.75-2.65-1.12-4.99-1.12h-4.78v10.08z"/><path d="m764.91 597.56v7.43h13.64c1.02 0 1.53.49 1.53 1.48v4.33c0 1.02-.51 1.53-1.53 1.53h-20.76c-.98 0-1.48-.49-1.48-1.48v-32.98c0-.98.49-1.48 1.48-1.48h20.56c.98 0 1.48.49 1.48 1.48v4.38c0 1.02-.49 1.53-1.48 1.53h-13.43v6.77h12.72c.95 0 1.42.49 1.42 1.48v4.07c0 .98-.47 1.48-1.42 1.48h-12.73z"/><path d="m799.89 609.47c-2.26-2.31-3.38-5.56-3.38-9.77v-22.29c0-.54.29-.81.87-.81h2.65c.58 0 .86.27.86.81v21.98c0 6.34 3.04 9.52 9.11 9.52s9.11-3.17 9.11-9.52v-21.98c0-.54.27-.81.81-.81h2.7c.54 0 .81.27.81.81v22.29c0 4.21-1.12 7.46-3.36 9.77s-5.6 3.46-10.08 3.46-7.84-1.16-10.1-3.46z"/><path d="m860.65 610.28c-2.36 1.63-5.61 2.44-9.75 2.44-4.38 0-7.72-.54-10.03-1.63-.54-.24-.76-.56-.66-.97l.81-2.29c.14-.58.47-.75 1.02-.51 2.44.98 5.34 1.48 8.7 1.48 2.82 0 5.03-.49 6.64-1.48 1.61-.98 2.42-2.39 2.42-4.22 0-.64-.08-1.24-.25-1.78s-.51-1.06-1.02-1.55-.93-.88-1.27-1.17-.98-.65-1.91-1.07-1.57-.71-1.91-.87c-.34-.15-1.1-.47-2.29-.94-.98-.41-1.74-.72-2.26-.94-.53-.22-1.21-.53-2.06-.94s-1.49-.78-1.93-1.12-.95-.78-1.53-1.32-1.01-1.09-1.3-1.65-.53-1.22-.74-1.98c-.2-.76-.3-1.59-.3-2.47 0-2.95 1.01-5.23 3.03-6.84s5.1-2.42 9.24-2.42c3.53 0 6.46.49 8.8 1.48.54.2.75.53.61.97l-.81 2.24c-.17.51-.53.66-1.07.46-1.97-.78-4.38-1.17-7.23-1.17s-4.93.44-6.23 1.32c-1.31.88-1.96 2.21-1.96 3.97 0 .47.07.93.2 1.37.14.44.28.81.43 1.12s.42.62.79.94.69.59.94.79.67.45 1.25.74 1.01.49 1.3.61.81.33 1.55.64c.75.31 1.25.53 1.53.66 1.32.58 2.24.97 2.75 1.2s1.31.62 2.42 1.2c1.1.58 1.89 1.09 2.37 1.55.47.46 1.02 1.05 1.63 1.78s1.04 1.53 1.27 2.39.36 1.84.36 2.93c-.01 3.06-1.19 5.42-3.55 7.05z"/><path d="m885.51 595.98v12.31h15.83c.58 0 .87.27.87.81v2.29c0 .61-.29.92-.87.92h-19.29c-.58 0-.87-.29-.87-.87v-34.04c0-.54.27-.81.81-.81h19.19c.58 0 .87.27.87.81v2.34c0 .58-.29.87-.87.87h-15.67v11.5h15.11c.54 0 .81.29.81.86v2.14c0 .58-.27.87-.81.87z"/><path d="m918.39 607.63c0-.54.27-.81.81-.81h3.26c.54 0 .81.27.81.81v3.87c0 .54-.25.81-.76.81h-3.36c-.51 0-.76-.27-.76-.81z"/></g><path d="m136.99 717.46c-6.94 27.07-13.92 54.13-20.89 81.19-1.4 5.42.5 8.75 6.03 10.1 7.89 1.92 15.72 4.09 23.61 5.99 8.71 2.09 10.13 1.15 12.45-7.84 2.38-9.21 4.73-18.42 8.52-27.88l2.33 7.12c10.55 32.24 22.75 69.79 33.32 102.02.13.39.35.78.6 1.17-.05 1.49 3.99 5.17 14.94 12.56 3.54 2.39 13.95 6.54 30.87 8.51 1.12.13 96.47 6.74 130.27 9.59 8.96.76 10.48-.48 11.26-9.48 3.15-36.17 6.24-72.35 9.29-108.53.8-9.46-.39-10.81-9.84-11.63-28.28-2.44-56.55-4.86-84.83-7.27-4.04-12.35-8.07-24.69-12.11-37.04-.79-2.42-1.58-4.84-2.38-7.26.49-.23.98-.46 1.46-.69 7.18 5.9 14.35 11.8 21.53 17.7 7.63 6.26 9.21 6.13 15.66-1.61 4.9-5.87 9.59-11.91 14.58-17.7 4.01-4.65 3.36-8.45-1.21-12.19-21.44-17.55-42.84-35.14-64.23-52.76-3.2-2.63-6.49-3.65-10.59-2.25-9.95 3.38-19.97 6.57-29.96 9.84-3.09 1.01-5.6 2.47-6.23 6.11-2.71 15.73-11.63 23.84-27.54 25.16-8.26.69-15.77-.46-20.63-8.33-2.16-3.49-5.47-3.34-8.89-2.22-10.22 3.34-20.42 6.74-30.66 10.01-3.82 1.22-5.77 3.87-6.73 7.61zm32.78-4.65c3.55-1.05 6.08-.71 9.11 1.72 17.95 14.39 53.73 5.76 61.67-15.9 3.25-8.88 8.13-12.45 16.18-14.25 2.55-.57 5.09-1.4 7.49-2.45 4.47-1.96 7.95-1.05 11.72 2.13 15.53 13.08 31.37 25.8 47 38.77 11.31 9.39 11.66 6.2 2.09 18.81-3.64 4.8-6.15 4.27-10.21.79-9.78-8.41-19.87-16.46-29.88-24.61-2.58-2.1-5.32-4.7-8.91-2.3-3.41 2.28-2.81 5.71-1.72 9.06.59 1.82 1.17 3.64 1.76 5.46 11.74 35.89 23.34 71.82 35.35 107.62.23.69.4 1.31.55 1.91 3.2 4.67 4.53 10.66 6 16.25 8.41-2.78 9.25-4.59 6.48-13.08-5.26-16.14-10.55-32.26-15.82-48.39 4.46.38 8.93.76 13.39 1.15v.02c19.76 1.69 39.52 3.54 59.3 4.98 5.54.4 7.36 2.28 6.83 7.97-2.85 30.7-5.52 61.41-7.86 92.15-.49 6.5-2.5 8.47-9.17 7.85-37.59-3.51-75.23-6.58-112.85-9.8-1.9-.16-3.81-.31-5.72-.47-3.5-.29-11.97-1-16.03-1.63-3.01-.47-7.72-1.83-12.67-3.31-.95-.69-2.03-1.44-3.34-2.28-9.38-5.99-11.19-16.57-11.85-18.7-5.93-18.93-12.24-37.73-18.41-56.59l-.02.01c-6.24-19.08-12.49-38.16-18.72-57.24-1.09-3.32-2.52-6.53-6.6-6.52-4.34.01-5.16 3.67-6 6.92-2.77 10.63-5.3 21.34-8.22 31.93-4.17 15.15-.94 12.95-16.07 9.6-5.66-1.25-6.58-3.75-5.13-9.06 4.56-16.59 8.68-33.29 12.91-49.97 5.62-22.14 5.61-22.08 27.37-28.55z" fill="#85c924"/><path d="m841.94 665.53c-5.73.91-10.04 3.98-14.21 6.96-.97.69-1.95 1.39-2.95 2.07-11.97 8.07-18.89 17.63-20.03 27.68-1.07 9.4 2.81 18.9 11.54 28.25 3.52 3.78 2.84 5.49-2.67 8.39-26.81 14.13-50.18 26.57-71.44 38.04-4.23 2.28-6.77 5.11-7.56 8.39-.73 3.04.08 6.3 2.41 9.67 6.3 9.12 7.58 18.77 3.82 28.68-3.67 9.69-7.51 17.93-17.29 20.68-4.56 1.24-9.53 1.62-14.33 1.96-7.21.48-13 3.19-17.71 8.28-3.1 3.35-4.48 6.49-4.21 9.6.27 3.15 2.22 6.06 5.97 8.9l49.65 37.69c1.39 1.06 2.74 2.21 4.1 3.36 3.12 2.65 6.35 5.39 10.11 7.09 5.63 2.54 10.83 3.19 15.79 1.91 5.43-1.4 10.56-5.12 15.59-11.24 11.63-14.14 23.28-28.25 34.94-42.37 17.99-21.78 35.99-43.56 53.85-65.44 1.61-1.97 3.28-3.89 4.95-5.83 6-6.93 12.21-14.1 15.59-23.24l.01-.03c1.66-4.77 2.29-9.2 1.94-13.56l-.87-11.07c-.95-12.12-20.09-64.7-28.07-74.16-7.55-8.92-17.27-12.51-28.92-10.66zm-94.21 126.06c-.87-1.74-1.13-3-.79-3.74.37-.8 1.62-1.28 2.62-1.53.02 0 .03-.01.06-.01 2.13-.55 4.26-1.71 5.85-3.21.79-.74 1.5-1.16 1.95-1.09.73.08 1.69 1.48 2.53 2.72 1.24 1.82 2.36 3.72 3.48 5.61l1.26 2.11c2.07 3.41 5.12 4.28 8.32 2.35 3.99-2.38 2.19-6.18 1.3-8.06-1.31-2.8-3.1-5.35-4.95-8-.91-1.29-1.29-2.36-1.06-2.93.43-1.05 3.09-1.53 4.2-1.74l.69-.13c1.47-.38 2.84-1.57 4.06-2.76.89-.88 2.13-2.06 2.74-1.97.14.02.93.25 2.15 2.56.56 1.08 1.15 2.14 1.74 3.22.95 1.73 1.9 3.46 2.75 5.24 2.28 4.77 5.62 4.07 7.44 3.25 3.39-1.58 4.42-4.7 2.75-8.35-.3-.65-.53-1.37-.75-2.07-.48-1.49-.98-3.03-2.06-4.3-.79-.93-1.15-2.04-1.56-3.33-.16-.5-.32-1.01-.51-1.51.68-.38 1.36-.75 2.04-1.13 2.85-1.58 5.8-3.23 8.65-4.59.15.07.6.55.97 1.54.45 1.21 1.08 2.35 1.7 3.48.53.96 1.06 1.9 1.41 2.88 1.13 3.11 2.72 5.09 4.71 5.86 1.05.41 2.75.68 4.86-.41 1.56-.8 2.54-1.88 2.93-3.21.66-2.29-.66-4.56-1.73-6.39-.24-.41-.47-.81-.76-1.35-3.97-7.6-3.97-7.6 3.72-11.83 9.41-5.18 11.42-18.35 3.33-27.46-6.6-7.45-8.58-13.45-6.82-20.75 1.37-5.69 5.24-9.19 10.17-13.17 8.78-7.1 8.78-7.1 16.22 1.85 4.18 5.02 6.6 10.43 9.15 16.44 2.81 6.61 10.94 37 11.48 42.53.26 2.63-.25 5.17-.7 7.42-.16.84-.32 1.61-.42 2.31-3.04 8.82-3.59 11.96-8.97 18.18-1.52 1.75-3.03 3.5-4.47 5.28-12.11 14.95-24.35 29.81-36.58 44.68-9.65 11.72-19.3 23.45-28.9 35.22-3.06 3.76-4.4 4.72-8.67 1.91-12.98-8.58-31.02-4.96-42.88 8.59-1.07 1.22-2.05 2.7-2.98 4.13-1.78 2.69-3.6 5.48-5.5 5.5-2.19.02-4.88-2.39-7.48-4.71-1.18-1.05-2.36-2.1-3.52-2.98-1.61-1.21-3.18-2.48-4.76-3.75-2.28-1.84-4.63-3.73-7.1-5.44-1.19-.83-1.29-1.24-1.3-1.24 0-.01.05-.38 1.08-1.24 4.32-3.6 7.85-5.08 11.5-4.76 9.87.86 18.77-1.96 25.76-8.15 8.53-7.56 13.88-19.75 14.32-32.63.32-9.79-1.2-17.95-4.67-24.94zm-13.84 96.96c1.41-1.54 2.75-3.16 4.1-4.77 3.78-4.55 7.36-8.86 12.45-11.64 5.1-2.78 10.45-2.11 16.41-1 3.08.96 4.78 1.9 5.05 2.79.28.93-.67 2.76-2.84 5.44-2.3 2.84-4.64 5.67-6.98 8.49-3.64 4.4-7.28 8.8-10.85 13.35-.38.48-.9 1.14-.92 1.23-.01 0-.27-.06-.91-.6-2.6-2.23-5.29-4.36-7.98-6.49-2.22-1.76-4.44-3.52-6.61-5.34-.19-.15-.39-.31-.61-.47-.23-.17-.6-.44-.71-.42-.01 0-.01 0-.02.01.01 0 .06-.19.42-.58zm26.74 19.66c26.12-31.84 52.13-63.78 78.14-95.72l.49-.6c2.97-3.65 5.96-7.28 8.95-10.92 8.37-10.17 19.89-20.03 23.92-32.82 1.68-5.32 4.14-12.49 3.12-24.2-.84-9.68-15.81-51.02-22.16-58.73l-4.72-8.23c7.88.04 12.56 4.92 17.33 10.79 3.45 4.24 6.82 12.66 8.44 17.88 3.41 11.02 14.37 31.47 14.25 55.35-.05 10.04-4.65 16.85-10.66 24.11l-.47.57c-15.05 18.23-30.13 36.45-45.19 54.67-17.59 21.26-35.19 42.53-52.76 63.82-6.64 8.05-12.09 9.89-18.21 6.15-.91-.55-1.24-.84-1.32-.81-.01 0-.02.01-.02.02-.01-.08.13-.43.87-1.33z" fill="#85c924"/><path d="m381.64 329.47s125.65-109.58 129.06-107.17l14.39 10.52c48.14 36.11 107.57 89.02 107.57 89.02.09.08.14.12.23.2.03.03 3.4 2.93 7.86 4.37 4.62 1.49 8.25.83 11.69-2.14.39-.49.8-.93 1.21-1.37 2.87-3.11 7.21-7.8-1.51-19.6 0 0-72.09-92.5-135.53-129.89-5.67-3.34-12.73-3.18-18.3.34l-12.23 7.73c-5.54 3.5-10.6 7.71-15.07 12.51l-106.69 114.9c-.08.09-.17.18-.25.26.01 0-3.09 3.18-4.8 7.54-1.76 4.52-1.33 8.19 1.42 11.8.46.42.88.86 1.29 1.29 2.94 3.06 7.35 7.67 19.66-.31z" fill="none"/><path d="m363.49 350.45c8.54 2.14 17.98-.15 28.06-6.81.26-.17.52-.36.76-.56l120.93-100.42c53.38 36.66 108.34 92.42 108.34 92.42 8.05 7.1 27.22 16.34 43.25 1.29.45-.42.85-.88 1.19-1.38.1-.11.22-.24.35-.37 2.09-2.26 6.44-6.98 7.84-14.49 1.62-8.66-1.25-17.94-8.51-27.59-.19-.25-.39-.49-.6-.72s-83.76-97.88-137.78-132.06c-7.08-2.21-18.25-10.38-35.41-2.4-4.45 2.07-15.69 9.75-18.14 11.43l-13.85 11.38.17.2-108.32 116.63c-7.58 7.6-17.97 26.18-3.92 43.1.39.47.83.9 1.31 1.27.11.11.22.23.35.37 2.13 2.23 6.56 6.86 13.98 8.71zm-1.51-20.67c-.41-.43-.83-.87-1.29-1.29-2.75-3.61-3.19-7.28-1.42-11.8 1.7-4.36 4.8-7.54 4.8-7.54.09-.09.17-.17.25-.26l106.71-114.91c4.46-4.8 9.53-9.01 15.07-12.51l12.23-7.73c5.57-3.52 12.63-3.68 18.3-.34 63.45 37.39 135.53 129.89 135.53 129.89 8.72 11.79 4.38 16.48 1.51 19.6-.4.44-.81.88-1.21 1.37-3.44 2.97-7.07 3.62-11.69 2.14-4.46-1.44-7.83-4.34-7.86-4.37-.09-.08-.14-.12-.23-.2 0 0-59.44-52.91-107.57-89.02l-14.39-10.52c-3.41-2.41-129.06 107.17-129.06 107.17-12.33 7.99-16.74 3.38-19.68.32z" fill="#85c924"/><path d="m515.28 159.78-3.37-19c-.02-.11-.04-.22-.07-.33-1.07-4.93-5.92-13.97-17.29-16.99-7.07-2.64-12.55-5.29-13.63-13.06-.74-5.4.79-10.56 4.33-14.52 3.53-3.96 8.66-6.15 14.08-6.01 10.36.25 15.2 8.86 16.21 16.15.65 4.73 5.01 8.03 9.74 7.39 4.75-.65 8.04-5.01 7.39-9.74-2.46-17.88-15.99-30.66-32.91-31.07-10.5-.26-20.49 4.04-27.4 11.78-6.87 7.7-9.99 18.05-8.56 28.4 2.58 18.63 18.13 24.44 24.78 26.92l.35.13c.32.12.65.22.98.3 3.66.89 4.78 3.32 5.05 4.11l3.29 18.54 17.67-3.04c-.36.01-.64.04-.64.04z" fill="#85c924"/><path d="m139.29 402.6c16.82 0 29.41 3.25 37.77 9.74s12.53 17.02 12.53 31.59c0 18.74-8.75 30.77-26.25 36.08l25.41 35.91c1.13 1.47 1.38 2.88.76 4.23s-1.83 2.03-3.64 2.03h-19.65c-2.94 0-5.25-1.3-6.94-3.9l-23.37-34.21h-12.87v33.2c0 3.27-1.64 4.91-4.91 4.91h-18.98c-3.27 0-4.91-1.64-4.91-4.91v-109.76c0-3.27 1.64-4.91 4.91-4.91zm-.51 58.09c7.79 0 13.35-1.33 16.68-3.98s5-6.92 5-12.79c0-6.21-1.64-10.56-4.91-13.04s-8.81-3.73-16.6-3.73h-15.92v33.54z" fill="#1c362d"/><path d="m275.29 499.65c2.94-1.35 4.97-.4 6.1 2.88l3.05 8.98c.79 2.48-.17 4.4-2.88 5.76-9.26 4.63-19.53 6.94-30.83 6.94-15.7 0-27.86-4.09-36.5-12.28s-12.96-19.79-12.96-34.81 4.01-26.62 12.03-34.81 18.91-12.28 32.69-12.28c13.32 0 23.71 3.95 31.16 11.86 7.45 7.9 11.18 18.46 11.18 31.67v8.3c0 3.05-1.58 4.57-4.74 4.57h-55.05c1.02 5.76 3.64 10.25 7.88 13.47 4.23 3.22 9.8 4.83 16.68 4.83 7.69 0 15.08-1.69 22.19-5.08zm-47.59-28.96h36.08v-1.19c0-6.32-1.47-11.24-4.4-14.74-2.94-3.5-7.23-5.25-12.87-5.25-11.41.01-17.68 7.06-18.81 21.18z" fill="#1c362d"/><path d="m350.67 402.6c16.82 0 29.41 3.25 37.77 9.74s12.53 17.02 12.53 31.59c0 18.74-8.75 30.77-26.25 36.08l25.41 35.91c1.13 1.47 1.38 2.88.76 4.23s-1.83 2.03-3.64 2.03h-19.65c-2.94 0-5.25-1.3-6.94-3.9l-23.37-34.21h-12.87v33.2c0 3.27-1.64 4.91-4.91 4.91h-18.97c-3.27 0-4.91-1.64-4.91-4.91v-109.76c0-3.27 1.64-4.91 4.91-4.91zm-.51 58.09c7.79 0 13.35-1.33 16.68-3.98s5-6.92 5-12.79c0-6.21-1.64-10.56-4.91-13.04s-8.81-3.73-16.6-3.73h-15.92v33.54z" fill="#1c362d"/><path d="m424.77 512.01c-8.07-8.02-12.11-19.65-12.11-34.89 0-15.36 4.04-27.04 12.11-35.06s19.17-12.03 33.28-12.03 25.24 4.01 33.37 12.03 12.19 19.7 12.19 35.06c0 15.24-4.06 26.87-12.19 34.89s-19.25 12.03-33.37 12.03c-14.11 0-25.21-4.01-33.28-12.03zm50.73-34.89c0-17.16-5.81-25.74-17.45-25.74-11.52 0-17.28 8.58-17.28 25.74 0 17.05 5.76 25.58 17.28 25.58 11.63 0 17.45-8.53 17.45-25.58z" fill="#1c362d"/><path d="m546.46 443.25c2.37-3.95 6.18-7.14 11.43-9.57s10.64-3.64 16.17-3.64c11.86 0 21 3.95 27.44 11.86 6.44 7.9 9.65 19.65 9.65 35.23 0 15.47-3.22 27.16-9.65 35.06-6.44 7.9-15.58 11.86-27.44 11.86-5.53 0-10.78-1.04-15.75-3.13s-8.58-5.17-10.84-9.23v24.39c0 3.16-1.52 4.74-4.57 4.74h-18.29c-3.16 0-4.74-1.58-4.74-4.74v-99.42c0-3.05 1.58-4.57 4.74-4.57h16.26c2.82 0 4.4 1.24 4.74 3.73zm18.98 59.28c5.87 0 10.27-2 13.21-6.01s4.4-10.47 4.4-19.39c0-9.03-1.47-15.55-4.4-19.56-2.94-4.01-7.34-6.01-13.21-6.01-12.08 0-18.12 8.52-18.12 25.58-.01 16.92 6.03 25.39 18.12 25.39z" fill="#1c362d"/><path d="m707.37 517.43c0 3.16-1.52 4.74-4.57 4.74h-15.41c-2.71 0-4.29-1.24-4.74-3.73l-1.02-7.45c-6.1 8.36-16.03 12.53-29.81 12.53-8.69 0-15.67-2.26-20.92-6.78s-7.88-11.07-7.88-19.65c0-4.97.93-9.26 2.79-12.87s4.32-6.49 7.37-8.64 7.17-3.84 12.36-5.08 10.42-2.12 15.67-2.62c5.25-.51 11.71-.82 19.39-.93v-3.22c0-8.47-5.81-12.7-17.45-12.7-7.79 0-15.92 1.58-24.39 4.74-2.94 1.24-4.86.28-5.76-2.88l-3.39-10.5c-.9-2.6 0-4.52 2.71-5.76 10.16-4.4 21.79-6.61 34.89-6.61 26.76 0 40.14 10.73 40.14 32.18v55.23zm-26.76-35.73c-10.95.23-18.91 1.27-23.88 3.13s-7.45 5.34-7.45 10.42c0 3.16 1.13 5.7 3.39 7.62s5.36 2.88 9.32 2.88c6.21 0 10.87-1.55 13.97-4.66 3.1-3.1 4.66-7.2 4.66-12.28v-7.11z" fill="#1c362d"/><path d="m727.36 504.56c0-2.14 1.13-3.22 3.39-3.22h12.7c2.26 0 3.39 1.07 3.39 3.22v14.4c0 2.15-1.07 3.22-3.22 3.22h-13.04c-2.15 0-3.22-1.07-3.22-3.22z" fill="#1c362d"/><path d="m833.39 505.07c1.92-1.13 3.33-.51 4.23 1.86l2.71 6.94c.56 1.69-.17 2.99-2.2 3.9-8.36 4.29-17.73 6.44-28.12 6.44-14.45 0-25.77-4.09-33.96-12.28s-12.28-19.45-12.28-33.79c0-14.68 3.73-26.08 11.18-34.21s17.61-12.19 30.49-12.19c12.53 0 22.24 3.81 29.13 11.43s10.33 17.7 10.33 30.23v8.3c0 2.15-1.13 3.22-3.39 3.22h-60.3c.68 7.68 3.7 13.83 9.06 18.46s12.34 6.94 20.92 6.94c8.37 0 15.76-1.75 22.2-5.25zm-52.51-32.69h47.76v-.85c0-7.9-1.98-14.2-5.93-18.88s-9.65-7.03-17.11-7.03c-15.35 0-23.59 8.92-24.72 26.76z" fill="#1c362d"/><path d="m890.47 523.87c-11.18 0-20.78-1.58-28.79-4.74-1.92-.68-2.65-1.81-2.2-3.39l2.37-7.79c.56-2.03 1.86-2.71 3.9-2.03 7 2.71 14.51 4.06 22.53 4.06 6.78 0 11.74-.85 14.9-2.54s4.74-4.63 4.74-8.81c0-3.61-1.61-6.49-4.83-8.64s-8.44-4.46-15.67-6.94c-9.15-3.27-15.02-5.82-17.62-7.62-6.44-4.52-9.71-11.07-9.82-19.65 0-7.79 2.71-13.75 8.13-17.87s13.44-6.18 24.05-6.18c10.73 0 19.76 1.64 27.1 4.91 1.92.79 2.6 1.98 2.03 3.56l-2.37 7.28c-.56 1.92-1.81 2.6-3.73 2.03-6.78-2.48-13.66-3.73-20.66-3.73-6.1 0-10.5.79-13.21 2.37s-4.06 4.23-4.06 7.96 1.52 6.55 4.57 8.47 8.3 4.18 15.75 6.78c8.92 3.16 15.75 6.72 20.49 10.67s7.11 9.54 7.11 16.77c.01 16.71-11.56 25.07-34.71 25.07z" fill="#1c362d"/></svg>